G04 #@! TF.FileFunction,Legend,Bot*
%FSLAX46Y46*%
G04 Gerber Fmt 4.6, Leading zero omitted, Abs format (unit mm)*
G04 Created by KiCad (PCBNEW 4.0.7) date Sun Jun  3 02:11:31 2018*
%MOMM*%
%LPD*%
G01*
G04 APERTURE LIST*
%ADD10C,0.100000*%
%ADD11C,0.150000*%
%ADD12C,0.200000*%
G04 APERTURE END LIST*
D10*
D11*
X155788952Y-134278667D02*
X155312761Y-134278667D01*
X155884190Y-134564381D02*
X155550857Y-133564381D01*
X155217523Y-134564381D01*
X154884190Y-134564381D02*
X154884190Y-133564381D01*
X154646095Y-133564381D01*
X154503237Y-133612000D01*
X154407999Y-133707238D01*
X154360380Y-133802476D01*
X154312761Y-133992952D01*
X154312761Y-134135810D01*
X154360380Y-134326286D01*
X154407999Y-134421524D01*
X154503237Y-134516762D01*
X154646095Y-134564381D01*
X154884190Y-134564381D01*
X153884190Y-134564381D02*
X153884190Y-133564381D01*
X153550856Y-134278667D01*
X153217523Y-133564381D01*
X153217523Y-134564381D01*
X151931809Y-133564381D02*
X152027047Y-133754857D01*
X150979428Y-134564381D02*
X151550857Y-134564381D01*
X151265143Y-134564381D02*
X151265143Y-133564381D01*
X151360381Y-133707238D01*
X151455619Y-133802476D01*
X151550857Y-133850095D01*
X150408000Y-133992952D02*
X150503238Y-133945333D01*
X150550857Y-133897714D01*
X150598476Y-133802476D01*
X150598476Y-133754857D01*
X150550857Y-133659619D01*
X150503238Y-133612000D01*
X150408000Y-133564381D01*
X150217523Y-133564381D01*
X150122285Y-133612000D01*
X150074666Y-133659619D01*
X150027047Y-133754857D01*
X150027047Y-133802476D01*
X150074666Y-133897714D01*
X150122285Y-133945333D01*
X150217523Y-133992952D01*
X150408000Y-133992952D01*
X150503238Y-134040571D01*
X150550857Y-134088190D01*
X150598476Y-134183429D01*
X150598476Y-134373905D01*
X150550857Y-134469143D01*
X150503238Y-134516762D01*
X150408000Y-134564381D01*
X150217523Y-134564381D01*
X150122285Y-134516762D01*
X150074666Y-134469143D01*
X150027047Y-134373905D01*
X150027047Y-134183429D01*
X150074666Y-134088190D01*
X150122285Y-134040571D01*
X150217523Y-133992952D01*
D12*
X154011381Y-113855667D02*
X155011381Y-114189000D01*
X154011381Y-114522334D01*
X154916143Y-115427096D02*
X154963762Y-115379477D01*
X155011381Y-115236620D01*
X155011381Y-115141382D01*
X154963762Y-114998524D01*
X154868524Y-114903286D01*
X154773286Y-114855667D01*
X154582810Y-114808048D01*
X154439952Y-114808048D01*
X154249476Y-114855667D01*
X154154238Y-114903286D01*
X154059000Y-114998524D01*
X154011381Y-115141382D01*
X154011381Y-115236620D01*
X154059000Y-115379477D01*
X154106619Y-115427096D01*
X154916143Y-116427096D02*
X154963762Y-116379477D01*
X155011381Y-116236620D01*
X155011381Y-116141382D01*
X154963762Y-115998524D01*
X154868524Y-115903286D01*
X154773286Y-115855667D01*
X154582810Y-115808048D01*
X154439952Y-115808048D01*
X154249476Y-115855667D01*
X154154238Y-115903286D01*
X154059000Y-115998524D01*
X154011381Y-116141382D01*
X154011381Y-116236620D01*
X154059000Y-116379477D01*
X154106619Y-116427096D01*
X151392000Y-114427096D02*
X151344381Y-114331858D01*
X151344381Y-114189001D01*
X151392000Y-114046143D01*
X151487238Y-113950905D01*
X151582476Y-113903286D01*
X151772952Y-113855667D01*
X151915810Y-113855667D01*
X152106286Y-113903286D01*
X152201524Y-113950905D01*
X152296762Y-114046143D01*
X152344381Y-114189001D01*
X152344381Y-114284239D01*
X152296762Y-114427096D01*
X152249143Y-114474715D01*
X151915810Y-114474715D01*
X151915810Y-114284239D01*
X152344381Y-114903286D02*
X151344381Y-114903286D01*
X152344381Y-115474715D01*
X151344381Y-115474715D01*
X152344381Y-115950905D02*
X151344381Y-115950905D01*
X151344381Y-116189000D01*
X151392000Y-116331858D01*
X151487238Y-116427096D01*
X151582476Y-116474715D01*
X151772952Y-116522334D01*
X151915810Y-116522334D01*
X152106286Y-116474715D01*
X152201524Y-116427096D01*
X152296762Y-116331858D01*
X152344381Y-116189000D01*
X152344381Y-115950905D01*
X152368095Y-128976381D02*
X152368095Y-127976381D01*
X151987142Y-127976381D01*
X151891904Y-128024000D01*
X151844285Y-128071619D01*
X151796666Y-128166857D01*
X151796666Y-128309714D01*
X151844285Y-128404952D01*
X151891904Y-128452571D01*
X151987142Y-128500190D01*
X152368095Y-128500190D01*
X151034761Y-128452571D02*
X150891904Y-128500190D01*
X150844285Y-128547810D01*
X150796666Y-128643048D01*
X150796666Y-128785905D01*
X150844285Y-128881143D01*
X150891904Y-128928762D01*
X150987142Y-128976381D01*
X151368095Y-128976381D01*
X151368095Y-127976381D01*
X151034761Y-127976381D01*
X150939523Y-128024000D01*
X150891904Y-128071619D01*
X150844285Y-128166857D01*
X150844285Y-128262095D01*
X150891904Y-128357333D01*
X150939523Y-128404952D01*
X151034761Y-128452571D01*
X151368095Y-128452571D01*
X150177619Y-127976381D02*
X150082380Y-127976381D01*
X149987142Y-128024000D01*
X149939523Y-128071619D01*
X149891904Y-128166857D01*
X149844285Y-128357333D01*
X149844285Y-128595429D01*
X149891904Y-128785905D01*
X149939523Y-128881143D01*
X149987142Y-128928762D01*
X150082380Y-128976381D01*
X150177619Y-128976381D01*
X150272857Y-128928762D01*
X150320476Y-128881143D01*
X150368095Y-128785905D01*
X150415714Y-128595429D01*
X150415714Y-128357333D01*
X150368095Y-128166857D01*
X150320476Y-128071619D01*
X150272857Y-128024000D01*
X150177619Y-127976381D01*
X152368095Y-126436381D02*
X152368095Y-125436381D01*
X151987142Y-125436381D01*
X151891904Y-125484000D01*
X151844285Y-125531619D01*
X151796666Y-125626857D01*
X151796666Y-125769714D01*
X151844285Y-125864952D01*
X151891904Y-125912571D01*
X151987142Y-125960190D01*
X152368095Y-125960190D01*
X151034761Y-125912571D02*
X150891904Y-125960190D01*
X150844285Y-126007810D01*
X150796666Y-126103048D01*
X150796666Y-126245905D01*
X150844285Y-126341143D01*
X150891904Y-126388762D01*
X150987142Y-126436381D01*
X151368095Y-126436381D01*
X151368095Y-125436381D01*
X151034761Y-125436381D01*
X150939523Y-125484000D01*
X150891904Y-125531619D01*
X150844285Y-125626857D01*
X150844285Y-125722095D01*
X150891904Y-125817333D01*
X150939523Y-125864952D01*
X151034761Y-125912571D01*
X151368095Y-125912571D01*
X149844285Y-126436381D02*
X150415714Y-126436381D01*
X150130000Y-126436381D02*
X150130000Y-125436381D01*
X150225238Y-125579238D01*
X150320476Y-125674476D01*
X150415714Y-125722095D01*
X152368095Y-123896381D02*
X152368095Y-122896381D01*
X151987142Y-122896381D01*
X151891904Y-122944000D01*
X151844285Y-122991619D01*
X151796666Y-123086857D01*
X151796666Y-123229714D01*
X151844285Y-123324952D01*
X151891904Y-123372571D01*
X151987142Y-123420190D01*
X152368095Y-123420190D01*
X151034761Y-123372571D02*
X150891904Y-123420190D01*
X150844285Y-123467810D01*
X150796666Y-123563048D01*
X150796666Y-123705905D01*
X150844285Y-123801143D01*
X150891904Y-123848762D01*
X150987142Y-123896381D01*
X151368095Y-123896381D01*
X151368095Y-122896381D01*
X151034761Y-122896381D01*
X150939523Y-122944000D01*
X150891904Y-122991619D01*
X150844285Y-123086857D01*
X150844285Y-123182095D01*
X150891904Y-123277333D01*
X150939523Y-123324952D01*
X151034761Y-123372571D01*
X151368095Y-123372571D01*
X150415714Y-122991619D02*
X150368095Y-122944000D01*
X150272857Y-122896381D01*
X150034761Y-122896381D01*
X149939523Y-122944000D01*
X149891904Y-122991619D01*
X149844285Y-123086857D01*
X149844285Y-123182095D01*
X149891904Y-123324952D01*
X150463333Y-123896381D01*
X149844285Y-123896381D01*
X152463333Y-120356381D02*
X152130000Y-121356381D01*
X151796666Y-120356381D01*
X150891904Y-121261143D02*
X150939523Y-121308762D01*
X151082380Y-121356381D01*
X151177618Y-121356381D01*
X151320476Y-121308762D01*
X151415714Y-121213524D01*
X151463333Y-121118286D01*
X151510952Y-120927810D01*
X151510952Y-120784952D01*
X151463333Y-120594476D01*
X151415714Y-120499238D01*
X151320476Y-120404000D01*
X151177618Y-120356381D01*
X151082380Y-120356381D01*
X150939523Y-120404000D01*
X150891904Y-120451619D01*
X149891904Y-121261143D02*
X149939523Y-121308762D01*
X150082380Y-121356381D01*
X150177618Y-121356381D01*
X150320476Y-121308762D01*
X150415714Y-121213524D01*
X150463333Y-121118286D01*
X150510952Y-120927810D01*
X150510952Y-120784952D01*
X150463333Y-120594476D01*
X150415714Y-120499238D01*
X150320476Y-120404000D01*
X150177618Y-120356381D01*
X150082380Y-120356381D01*
X149939523Y-120404000D01*
X149891904Y-120451619D01*
X137159904Y-128024000D02*
X137255142Y-127976381D01*
X137397999Y-127976381D01*
X137540857Y-128024000D01*
X137636095Y-128119238D01*
X137683714Y-128214476D01*
X137731333Y-128404952D01*
X137731333Y-128547810D01*
X137683714Y-128738286D01*
X137636095Y-128833524D01*
X137540857Y-128928762D01*
X137397999Y-128976381D01*
X137302761Y-128976381D01*
X137159904Y-128928762D01*
X137112285Y-128881143D01*
X137112285Y-128547810D01*
X137302761Y-128547810D01*
X136683714Y-128976381D02*
X136683714Y-127976381D01*
X136112285Y-128976381D01*
X136112285Y-127976381D01*
X135636095Y-128976381D02*
X135636095Y-127976381D01*
X135398000Y-127976381D01*
X135255142Y-128024000D01*
X135159904Y-128119238D01*
X135112285Y-128214476D01*
X135064666Y-128404952D01*
X135064666Y-128547810D01*
X135112285Y-128738286D01*
X135159904Y-128833524D01*
X135255142Y-128928762D01*
X135398000Y-128976381D01*
X135636095Y-128976381D01*
X137636095Y-126436381D02*
X137636095Y-125436381D01*
X137255142Y-125436381D01*
X137159904Y-125484000D01*
X137112285Y-125531619D01*
X137064666Y-125626857D01*
X137064666Y-125769714D01*
X137112285Y-125864952D01*
X137159904Y-125912571D01*
X137255142Y-125960190D01*
X137636095Y-125960190D01*
X136302761Y-125912571D02*
X136159904Y-125960190D01*
X136112285Y-126007810D01*
X136064666Y-126103048D01*
X136064666Y-126245905D01*
X136112285Y-126341143D01*
X136159904Y-126388762D01*
X136255142Y-126436381D01*
X136636095Y-126436381D01*
X136636095Y-125436381D01*
X136302761Y-125436381D01*
X136207523Y-125484000D01*
X136159904Y-125531619D01*
X136112285Y-125626857D01*
X136112285Y-125722095D01*
X136159904Y-125817333D01*
X136207523Y-125864952D01*
X136302761Y-125912571D01*
X136636095Y-125912571D01*
X135207523Y-125769714D02*
X135207523Y-126436381D01*
X135445619Y-125388762D02*
X135683714Y-126103048D01*
X135064666Y-126103048D01*
X137636095Y-123896381D02*
X137636095Y-122896381D01*
X137255142Y-122896381D01*
X137159904Y-122944000D01*
X137112285Y-122991619D01*
X137064666Y-123086857D01*
X137064666Y-123229714D01*
X137112285Y-123324952D01*
X137159904Y-123372571D01*
X137255142Y-123420190D01*
X137636095Y-123420190D01*
X136302761Y-123372571D02*
X136159904Y-123420190D01*
X136112285Y-123467810D01*
X136064666Y-123563048D01*
X136064666Y-123705905D01*
X136112285Y-123801143D01*
X136159904Y-123848762D01*
X136255142Y-123896381D01*
X136636095Y-123896381D01*
X136636095Y-122896381D01*
X136302761Y-122896381D01*
X136207523Y-122944000D01*
X136159904Y-122991619D01*
X136112285Y-123086857D01*
X136112285Y-123182095D01*
X136159904Y-123277333D01*
X136207523Y-123324952D01*
X136302761Y-123372571D01*
X136636095Y-123372571D01*
X135731333Y-122896381D02*
X135112285Y-122896381D01*
X135445619Y-123277333D01*
X135302761Y-123277333D01*
X135207523Y-123324952D01*
X135159904Y-123372571D01*
X135112285Y-123467810D01*
X135112285Y-123705905D01*
X135159904Y-123801143D01*
X135207523Y-123848762D01*
X135302761Y-123896381D01*
X135588476Y-123896381D01*
X135683714Y-123848762D01*
X135731333Y-123801143D01*
X137636095Y-121356381D02*
X137636095Y-120356381D01*
X137255142Y-120356381D01*
X137159904Y-120404000D01*
X137112285Y-120451619D01*
X137064666Y-120546857D01*
X137064666Y-120689714D01*
X137112285Y-120784952D01*
X137159904Y-120832571D01*
X137255142Y-120880190D01*
X137636095Y-120880190D01*
X136302761Y-120832571D02*
X136159904Y-120880190D01*
X136112285Y-120927810D01*
X136064666Y-121023048D01*
X136064666Y-121165905D01*
X136112285Y-121261143D01*
X136159904Y-121308762D01*
X136255142Y-121356381D01*
X136636095Y-121356381D01*
X136636095Y-120356381D01*
X136302761Y-120356381D01*
X136207523Y-120404000D01*
X136159904Y-120451619D01*
X136112285Y-120546857D01*
X136112285Y-120642095D01*
X136159904Y-120737333D01*
X136207523Y-120784952D01*
X136302761Y-120832571D01*
X136636095Y-120832571D01*
X135159904Y-120356381D02*
X135636095Y-120356381D01*
X135683714Y-120832571D01*
X135636095Y-120784952D01*
X135540857Y-120737333D01*
X135302761Y-120737333D01*
X135207523Y-120784952D01*
X135159904Y-120832571D01*
X135112285Y-120927810D01*
X135112285Y-121165905D01*
X135159904Y-121261143D01*
X135207523Y-121308762D01*
X135302761Y-121356381D01*
X135540857Y-121356381D01*
X135636095Y-121308762D01*
X135683714Y-121261143D01*
X149407024Y-117419381D02*
X149407024Y-116419381D01*
X149026071Y-116419381D01*
X148930833Y-116467000D01*
X148883214Y-116514619D01*
X148835595Y-116609857D01*
X148835595Y-116752714D01*
X148883214Y-116847952D01*
X148930833Y-116895571D01*
X149026071Y-116943190D01*
X149407024Y-116943190D01*
X148407024Y-117419381D02*
X148407024Y-116752714D01*
X148407024Y-116943190D02*
X148359405Y-116847952D01*
X148311786Y-116800333D01*
X148216548Y-116752714D01*
X148121309Y-116752714D01*
X147645119Y-117419381D02*
X147740357Y-117371762D01*
X147787976Y-117324143D01*
X147835595Y-117228905D01*
X147835595Y-116943190D01*
X147787976Y-116847952D01*
X147740357Y-116800333D01*
X147645119Y-116752714D01*
X147502261Y-116752714D01*
X147407023Y-116800333D01*
X147359404Y-116847952D01*
X147311785Y-116943190D01*
X147311785Y-117228905D01*
X147359404Y-117324143D01*
X147407023Y-117371762D01*
X147502261Y-117419381D01*
X147645119Y-117419381D01*
X146454642Y-116752714D02*
X146454642Y-117562238D01*
X146502261Y-117657476D01*
X146549880Y-117705095D01*
X146645119Y-117752714D01*
X146787976Y-117752714D01*
X146883214Y-117705095D01*
X146454642Y-117371762D02*
X146549880Y-117419381D01*
X146740357Y-117419381D01*
X146835595Y-117371762D01*
X146883214Y-117324143D01*
X146930833Y-117228905D01*
X146930833Y-116943190D01*
X146883214Y-116847952D01*
X146835595Y-116800333D01*
X146740357Y-116752714D01*
X146549880Y-116752714D01*
X146454642Y-116800333D01*
X145978452Y-117419381D02*
X145978452Y-116752714D01*
X145978452Y-116943190D02*
X145930833Y-116847952D01*
X145883214Y-116800333D01*
X145787976Y-116752714D01*
X145692737Y-116752714D01*
X144930832Y-117419381D02*
X144930832Y-116895571D01*
X144978451Y-116800333D01*
X145073689Y-116752714D01*
X145264166Y-116752714D01*
X145359404Y-116800333D01*
X144930832Y-117371762D02*
X145026070Y-117419381D01*
X145264166Y-117419381D01*
X145359404Y-117371762D01*
X145407023Y-117276524D01*
X145407023Y-117181286D01*
X145359404Y-117086048D01*
X145264166Y-117038429D01*
X145026070Y-117038429D01*
X144930832Y-116990810D01*
X144454642Y-117419381D02*
X144454642Y-116752714D01*
X144454642Y-116847952D02*
X144407023Y-116800333D01*
X144311785Y-116752714D01*
X144168927Y-116752714D01*
X144073689Y-116800333D01*
X144026070Y-116895571D01*
X144026070Y-117419381D01*
X144026070Y-116895571D02*
X143978451Y-116800333D01*
X143883213Y-116752714D01*
X143740356Y-116752714D01*
X143645118Y-116800333D01*
X143597499Y-116895571D01*
X143597499Y-117419381D01*
X143121309Y-117419381D02*
X143121309Y-116752714D01*
X143121309Y-116847952D02*
X143073690Y-116800333D01*
X142978452Y-116752714D01*
X142835594Y-116752714D01*
X142740356Y-116800333D01*
X142692737Y-116895571D01*
X142692737Y-117419381D01*
X142692737Y-116895571D02*
X142645118Y-116800333D01*
X142549880Y-116752714D01*
X142407023Y-116752714D01*
X142311785Y-116800333D01*
X142264166Y-116895571D01*
X142264166Y-117419381D01*
X141407023Y-117371762D02*
X141502261Y-117419381D01*
X141692738Y-117419381D01*
X141787976Y-117371762D01*
X141835595Y-117276524D01*
X141835595Y-116895571D01*
X141787976Y-116800333D01*
X141692738Y-116752714D01*
X141502261Y-116752714D01*
X141407023Y-116800333D01*
X141359404Y-116895571D01*
X141359404Y-116990810D01*
X141835595Y-117086048D01*
X140930833Y-117419381D02*
X140930833Y-116752714D01*
X140930833Y-116943190D02*
X140883214Y-116847952D01*
X140835595Y-116800333D01*
X140740357Y-116752714D01*
X140645118Y-116752714D01*
X149860000Y-113030000D02*
X140208000Y-113030000D01*
X143446500Y-116078000D02*
X143446500Y-109982000D01*
X146621500Y-116078000D02*
X146621500Y-109982000D01*
X149860000Y-110236000D02*
X149860000Y-109982000D01*
X149860000Y-109982000D02*
X149860000Y-110236000D01*
X140208000Y-109982000D02*
X149860000Y-109982000D01*
X149860000Y-116078000D02*
X149860000Y-110236000D01*
X140208000Y-116078000D02*
X149860000Y-116078000D01*
X140208000Y-109982000D02*
X140208000Y-116078000D01*
X149510595Y-115006381D02*
X149510595Y-114006381D01*
X149129642Y-114006381D01*
X149034404Y-114054000D01*
X148986785Y-114101619D01*
X148939166Y-114196857D01*
X148939166Y-114339714D01*
X148986785Y-114434952D01*
X149034404Y-114482571D01*
X149129642Y-114530190D01*
X149510595Y-114530190D01*
X148177261Y-114482571D02*
X148034404Y-114530190D01*
X147986785Y-114577810D01*
X147939166Y-114673048D01*
X147939166Y-114815905D01*
X147986785Y-114911143D01*
X148034404Y-114958762D01*
X148129642Y-115006381D01*
X148510595Y-115006381D01*
X148510595Y-114006381D01*
X148177261Y-114006381D01*
X148082023Y-114054000D01*
X148034404Y-114101619D01*
X147986785Y-114196857D01*
X147986785Y-114292095D01*
X148034404Y-114387333D01*
X148082023Y-114434952D01*
X148177261Y-114482571D01*
X148510595Y-114482571D01*
X147034404Y-114006381D02*
X147510595Y-114006381D01*
X147558214Y-114482571D01*
X147510595Y-114434952D01*
X147415357Y-114387333D01*
X147177261Y-114387333D01*
X147082023Y-114434952D01*
X147034404Y-114482571D01*
X146986785Y-114577810D01*
X146986785Y-114815905D01*
X147034404Y-114911143D01*
X147082023Y-114958762D01*
X147177261Y-115006381D01*
X147415357Y-115006381D01*
X147510595Y-114958762D01*
X147558214Y-114911143D01*
X146272095Y-114942881D02*
X146272095Y-113942881D01*
X145891142Y-113942881D01*
X145795904Y-113990500D01*
X145748285Y-114038119D01*
X145700666Y-114133357D01*
X145700666Y-114276214D01*
X145748285Y-114371452D01*
X145795904Y-114419071D01*
X145891142Y-114466690D01*
X146272095Y-114466690D01*
X144938761Y-114419071D02*
X144795904Y-114466690D01*
X144748285Y-114514310D01*
X144700666Y-114609548D01*
X144700666Y-114752405D01*
X144748285Y-114847643D01*
X144795904Y-114895262D01*
X144891142Y-114942881D01*
X145272095Y-114942881D01*
X145272095Y-113942881D01*
X144938761Y-113942881D01*
X144843523Y-113990500D01*
X144795904Y-114038119D01*
X144748285Y-114133357D01*
X144748285Y-114228595D01*
X144795904Y-114323833D01*
X144843523Y-114371452D01*
X144938761Y-114419071D01*
X145272095Y-114419071D01*
X144319714Y-114038119D02*
X144272095Y-113990500D01*
X144176857Y-113942881D01*
X143938761Y-113942881D01*
X143843523Y-113990500D01*
X143795904Y-114038119D01*
X143748285Y-114133357D01*
X143748285Y-114228595D01*
X143795904Y-114371452D01*
X144367333Y-114942881D01*
X143748285Y-114942881D01*
X142970095Y-115006381D02*
X142970095Y-114006381D01*
X142589142Y-114006381D01*
X142493904Y-114054000D01*
X142446285Y-114101619D01*
X142398666Y-114196857D01*
X142398666Y-114339714D01*
X142446285Y-114434952D01*
X142493904Y-114482571D01*
X142589142Y-114530190D01*
X142970095Y-114530190D01*
X141636761Y-114482571D02*
X141493904Y-114530190D01*
X141446285Y-114577810D01*
X141398666Y-114673048D01*
X141398666Y-114815905D01*
X141446285Y-114911143D01*
X141493904Y-114958762D01*
X141589142Y-115006381D01*
X141970095Y-115006381D01*
X141970095Y-114006381D01*
X141636761Y-114006381D01*
X141541523Y-114054000D01*
X141493904Y-114101619D01*
X141446285Y-114196857D01*
X141446285Y-114292095D01*
X141493904Y-114387333D01*
X141541523Y-114434952D01*
X141636761Y-114482571D01*
X141970095Y-114482571D01*
X140446285Y-115006381D02*
X141017714Y-115006381D01*
X140732000Y-115006381D02*
X140732000Y-114006381D01*
X140827238Y-114149238D01*
X140922476Y-114244476D01*
X141017714Y-114292095D01*
X149034404Y-111069500D02*
X149129642Y-111021881D01*
X149272499Y-111021881D01*
X149415357Y-111069500D01*
X149510595Y-111164738D01*
X149558214Y-111259976D01*
X149605833Y-111450452D01*
X149605833Y-111593310D01*
X149558214Y-111783786D01*
X149510595Y-111879024D01*
X149415357Y-111974262D01*
X149272499Y-112021881D01*
X149177261Y-112021881D01*
X149034404Y-111974262D01*
X148986785Y-111926643D01*
X148986785Y-111593310D01*
X149177261Y-111593310D01*
X148558214Y-112021881D02*
X148558214Y-111021881D01*
X147986785Y-112021881D01*
X147986785Y-111021881D01*
X147510595Y-112021881D02*
X147510595Y-111021881D01*
X147272500Y-111021881D01*
X147129642Y-111069500D01*
X147034404Y-111164738D01*
X146986785Y-111259976D01*
X146939166Y-111450452D01*
X146939166Y-111593310D01*
X146986785Y-111783786D01*
X147034404Y-111879024D01*
X147129642Y-111974262D01*
X147272500Y-112021881D01*
X147510595Y-112021881D01*
X146272095Y-112021881D02*
X146272095Y-111021881D01*
X145891142Y-111021881D01*
X145795904Y-111069500D01*
X145748285Y-111117119D01*
X145700666Y-111212357D01*
X145700666Y-111355214D01*
X145748285Y-111450452D01*
X145795904Y-111498071D01*
X145891142Y-111545690D01*
X146272095Y-111545690D01*
X144938761Y-111498071D02*
X144795904Y-111545690D01*
X144748285Y-111593310D01*
X144700666Y-111688548D01*
X144700666Y-111831405D01*
X144748285Y-111926643D01*
X144795904Y-111974262D01*
X144891142Y-112021881D01*
X145272095Y-112021881D01*
X145272095Y-111021881D01*
X144938761Y-111021881D01*
X144843523Y-111069500D01*
X144795904Y-111117119D01*
X144748285Y-111212357D01*
X144748285Y-111307595D01*
X144795904Y-111402833D01*
X144843523Y-111450452D01*
X144938761Y-111498071D01*
X145272095Y-111498071D01*
X144081619Y-111021881D02*
X143986380Y-111021881D01*
X143891142Y-111069500D01*
X143843523Y-111117119D01*
X143795904Y-111212357D01*
X143748285Y-111402833D01*
X143748285Y-111640929D01*
X143795904Y-111831405D01*
X143843523Y-111926643D01*
X143891142Y-111974262D01*
X143986380Y-112021881D01*
X144081619Y-112021881D01*
X144176857Y-111974262D01*
X144224476Y-111926643D01*
X144272095Y-111831405D01*
X144319714Y-111640929D01*
X144319714Y-111402833D01*
X144272095Y-111212357D01*
X144224476Y-111117119D01*
X144176857Y-111069500D01*
X144081619Y-111021881D01*
X143128833Y-111021881D02*
X142795500Y-112021881D01*
X142462166Y-111021881D01*
X141557404Y-111926643D02*
X141605023Y-111974262D01*
X141747880Y-112021881D01*
X141843118Y-112021881D01*
X141985976Y-111974262D01*
X142081214Y-111879024D01*
X142128833Y-111783786D01*
X142176452Y-111593310D01*
X142176452Y-111450452D01*
X142128833Y-111259976D01*
X142081214Y-111164738D01*
X141985976Y-111069500D01*
X141843118Y-111021881D01*
X141747880Y-111021881D01*
X141605023Y-111069500D01*
X141557404Y-111117119D01*
X140557404Y-111926643D02*
X140605023Y-111974262D01*
X140747880Y-112021881D01*
X140843118Y-112021881D01*
X140985976Y-111974262D01*
X141081214Y-111879024D01*
X141128833Y-111783786D01*
X141176452Y-111593310D01*
X141176452Y-111450452D01*
X141128833Y-111259976D01*
X141081214Y-111164738D01*
X140985976Y-111069500D01*
X140843118Y-111021881D01*
X140747880Y-111021881D01*
X140605023Y-111069500D01*
X140557404Y-111117119D01*
D11*
X142349220Y-133245860D02*
X141988540Y-134716520D01*
X141988540Y-134716520D02*
X141709140Y-133654800D01*
X141709140Y-133654800D02*
X141399260Y-134726680D01*
X141399260Y-134726680D02*
X141058900Y-133276340D01*
X143769080Y-133936740D02*
X142979140Y-133926580D01*
X142979140Y-133926580D02*
X142968980Y-133936740D01*
X142968980Y-133936740D02*
X142968980Y-133926580D01*
X142928340Y-133215380D02*
X142928340Y-134757160D01*
X143817340Y-133205220D02*
X143817340Y-134774940D01*
X143817340Y-134774940D02*
X143807180Y-134764780D01*
X144368520Y-133306820D02*
X144719040Y-133225540D01*
X144719040Y-133225540D02*
X145039080Y-133215380D01*
X145039080Y-133215380D02*
X145277840Y-133416040D01*
X145277840Y-133416040D02*
X145308320Y-133685280D01*
X145308320Y-133685280D02*
X145067020Y-133926580D01*
X145067020Y-133926580D02*
X144678400Y-134056120D01*
X144678400Y-134056120D02*
X144498060Y-134216140D01*
X144498060Y-134216140D02*
X144457420Y-134515860D01*
X144457420Y-134515860D02*
X144688560Y-134736840D01*
X144688560Y-134736840D02*
X145008600Y-134764780D01*
X145008600Y-134764780D02*
X145359120Y-134655560D01*
X146397980Y-133205220D02*
X146646900Y-133225540D01*
X146646900Y-133225540D02*
X146888200Y-133466840D01*
X146888200Y-133466840D02*
X146977100Y-133957060D01*
X146977100Y-133957060D02*
X146949160Y-134305040D01*
X146949160Y-134305040D02*
X146748500Y-134625080D01*
X146748500Y-134625080D02*
X146497040Y-134747000D01*
X146497040Y-134747000D02*
X146187160Y-134675880D01*
X146187160Y-134675880D02*
X145968720Y-134495540D01*
X145968720Y-134495540D02*
X145897600Y-134035800D01*
X145897600Y-134035800D02*
X145948400Y-133626860D01*
X145948400Y-133626860D02*
X146057620Y-133344920D01*
X146057620Y-133344920D02*
X146418300Y-133215380D01*
X145798540Y-131485640D02*
X146057620Y-132046980D01*
X146057620Y-132046980D02*
X145519140Y-132565140D01*
X145519140Y-132565140D02*
X144998440Y-132295900D01*
X144998440Y-132295900D02*
X144719040Y-132455920D01*
X143278860Y-132435600D02*
X142948660Y-132245100D01*
X142948660Y-132245100D02*
X142509240Y-132575300D01*
X142509240Y-132575300D02*
X142036800Y-132085080D01*
X142036800Y-132085080D02*
X142318740Y-131605020D01*
X142318740Y-131605020D02*
X142128240Y-131135120D01*
X142128240Y-131135120D02*
X141518640Y-130947160D01*
X141518640Y-130947160D02*
X141518640Y-130266440D01*
X141518640Y-130266440D02*
X142077440Y-130126740D01*
X142077440Y-130126740D02*
X142278100Y-129555240D01*
X142278100Y-129555240D02*
X142008860Y-129085340D01*
X142008860Y-129085340D02*
X142478760Y-128574800D01*
X142478760Y-128574800D02*
X142996920Y-128836420D01*
X142996920Y-128836420D02*
X143466820Y-128635760D01*
X143466820Y-128635760D02*
X143637000Y-128094740D01*
X143637000Y-128094740D02*
X144327880Y-128076960D01*
X144327880Y-128076960D02*
X144538700Y-128625600D01*
X144538700Y-128625600D02*
X144957800Y-128795780D01*
X144957800Y-128795780D02*
X145508980Y-128526540D01*
X145508980Y-128526540D02*
X146027140Y-129054860D01*
X146027140Y-129054860D02*
X145778220Y-129595880D01*
X145778220Y-129595880D02*
X145948400Y-130075940D01*
X145948400Y-130075940D02*
X146497040Y-130175000D01*
X146497040Y-130175000D02*
X146507200Y-130876040D01*
X146507200Y-130876040D02*
X145948400Y-131076700D01*
X145948400Y-131076700D02*
X145808700Y-131475480D01*
X143667480Y-131455160D02*
X143367760Y-131305300D01*
X143367760Y-131305300D02*
X143167100Y-131107180D01*
X143167100Y-131107180D02*
X143017240Y-130705860D01*
X143017240Y-130705860D02*
X143017240Y-130307080D01*
X143017240Y-130307080D02*
X143167100Y-129956560D01*
X143167100Y-129956560D02*
X143619220Y-129606040D01*
X143619220Y-129606040D02*
X144068800Y-129555240D01*
X144068800Y-129555240D02*
X144467580Y-129656840D01*
X144467580Y-129656840D02*
X144868900Y-130004820D01*
X144868900Y-130004820D02*
X145018760Y-130456940D01*
X145018760Y-130456940D02*
X144967960Y-130954780D01*
X144967960Y-130954780D02*
X144719040Y-131257040D01*
X144719040Y-131257040D02*
X144368520Y-131455160D01*
X144368520Y-131455160D02*
X144719040Y-132455920D01*
X143667480Y-131455160D02*
X143268700Y-132455920D01*
M02*
