G04 #@! TF.FileFunction,Copper,L1,Top,Signal*
%FSLAX46Y46*%
G04 Gerber Fmt 4.6, Leading zero omitted, Abs format (unit mm)*
G04 Created by KiCad (PCBNEW 4.0.7) date Sun Jun  3 02:11:31 2018*
%MOMM*%
%LPD*%
G01*
G04 APERTURE LIST*
%ADD10C,0.100000*%
%ADD11R,2.032000X2.032000*%
%ADD12O,2.032000X2.032000*%
%ADD13R,1.597660X1.800860*%
%ADD14R,1.600000X1.600000*%
%ADD15O,1.600000X1.600000*%
%ADD16R,2.032000X1.727200*%
%ADD17O,2.032000X1.727200*%
%ADD18R,1.727200X1.727200*%
%ADD19O,1.727200X1.727200*%
%ADD20R,2.000000X1.700000*%
%ADD21C,0.152400*%
%ADD22C,0.250000*%
G04 APERTURE END LIST*
D10*
D11*
X154432000Y-111760000D03*
D12*
X151892000Y-111760000D03*
D13*
X149247860Y-133096000D03*
X146408140Y-133096000D03*
D14*
X140208000Y-119888000D03*
D15*
X147828000Y-127508000D03*
X140208000Y-122428000D03*
X147828000Y-124968000D03*
X140208000Y-124968000D03*
X147828000Y-122428000D03*
X140208000Y-127508000D03*
X147828000Y-119888000D03*
D16*
X133096000Y-128524000D03*
D17*
X133096000Y-125984000D03*
X133096000Y-123444000D03*
X133096000Y-120904000D03*
D18*
X138176000Y-111760000D03*
D19*
X138176000Y-114300000D03*
X135636000Y-111760000D03*
X135636000Y-114300000D03*
X133096000Y-111760000D03*
X133096000Y-114300000D03*
D20*
X142716000Y-133096000D03*
X138716000Y-133096000D03*
D16*
X154432000Y-128524000D03*
D17*
X154432000Y-125984000D03*
X154432000Y-123444000D03*
X154432000Y-120904000D03*
D21*
X154432000Y-111760000D02*
X154432000Y-113284000D01*
X154432000Y-113284000D02*
X147828000Y-119888000D01*
X147828000Y-119888000D02*
X149352000Y-119888000D01*
X149352000Y-119888000D02*
X154432000Y-120904000D01*
X151892000Y-111760000D02*
X145288000Y-118364000D01*
X145288000Y-122428000D02*
X140208000Y-127508000D01*
X145288000Y-118364000D02*
X145288000Y-122428000D01*
X138716000Y-133096000D02*
X134620000Y-131572000D01*
X134620000Y-131572000D02*
X133096000Y-128524000D01*
X140208000Y-127508000D02*
X138176000Y-127508000D01*
X138176000Y-127508000D02*
X133096000Y-128524000D01*
X154432000Y-128524000D02*
X152908000Y-132588000D01*
X152908000Y-132588000D02*
X152400000Y-133096000D01*
X152400000Y-133096000D02*
X149247860Y-133096000D01*
D22*
X149755860Y-132588000D02*
X149247860Y-133096000D01*
D21*
X147828000Y-127508000D02*
X149352000Y-127508000D01*
X149352000Y-127508000D02*
X154432000Y-128524000D01*
X146408140Y-133096000D02*
X142716000Y-133096000D01*
X140208000Y-119888000D02*
X138176000Y-119888000D01*
X138176000Y-119888000D02*
X133096000Y-120904000D01*
X140208000Y-122428000D02*
X138176000Y-122428000D01*
X138176000Y-122428000D02*
X133096000Y-123444000D01*
X149352000Y-124968000D02*
X154432000Y-126492000D01*
X147828000Y-124968000D02*
X149352000Y-124968000D01*
X138176000Y-124968000D02*
X133096000Y-125984000D01*
X140208000Y-124968000D02*
X138176000Y-124968000D01*
X149352000Y-122428000D02*
X154432000Y-123444000D01*
X147828000Y-122428000D02*
X149352000Y-122428000D01*
M02*
